<svg data-v-0dd9719b="" version="1.0" xmlns="http://www.w3.org/2000/svg" xmlns:xlink="http://www.w3.org/1999/xlink" width="100%" height="100%" viewBox="0 0 340.000000 250.000000" preserveAspectRatio="xMidYMid meet" color-interpolation-filters="sRGB" style="margin: auto;"> <rect data-v-0dd9719b="" x="0" y="0" width="100%" height="100%" fill="#fff" fill-opacity="1" class="background"></rect> <rect data-v-0dd9719b="" x="0" y="0" width="100%" height="100%" fill="url(#watermark)" fill-opacity="1" class="watermarklayer"></rect> <g data-v-0dd9719b="" fill="#c8532c" class="icon-text-wrapper icon-svg-group iconsvg" transform="translate(48.57000732421875,97.06875038146973)"><g class="iconsvg-imagesvg" transform="translate(0,1.6339130401611328)"><g><rect fill="#c8532c" fill-opacity="0" stroke-width="2" x="0" y="0" width="60" height="52.594670406732114" class="image-rect"></rect> <svg x="0" y="0" width="60" height="52.594670406732114" filtersec="colorsb243123737" class="image-svg-svg primary" style="overflow: visible;"><svg xmlns="http://www.w3.org/2000/svg" viewBox="-0.0314173698425293 0.007488250732421875 740.5628662109375 649.1625366210938"><g><g><path d="M174.64 387.76l133-30.25c27.47-6.24 39.83-31.88 27.62-57.26l-47.58-98.9c-12.21-25.38-33.53-26.19-47.61-1.79L150.4 354.9c-14.08 24.39-3.23 39.1 24.24 32.86z" fill="#dc4304"></path><path d="M353.5 435.72l-99.33 169.41c-14.25 24.3-3 44 25.2 44h172.76c28.17 0 41.1-20.58 28.89-46L401.4 437.68c-12.21-25.38-33.66-26.26-47.9-1.96z" fill="#f64f06"></path><path d="M79 478.65L6 605c-14.08 24.4-2.67 44.17 25.5 44.17h111.1c28.17 0 62.55-19.7 76.8-44l107.32-183.1c14.25-24.3 3.53-38.93-23.94-32.69l-148.59 33.79C126.72 429.42 93 454.26 79 478.65z" fill="#fc6328"></path><path d="M533.14 256.28l-11.43-19.8c-14.08-24.39-37-24.47-51.3-.17l-31.17 53.16c-14.25 24.3-3.53 38.93 23.94 32.69l45.73-10.4c27.47-6.25 38.31-31.09 24.23-55.48z" fill="#dc6d0c"></path><path d="M422.86 413.07l91.46 190.1c12.21 25.38 44.94 46 73.11 46H709c28.17 0 39.58-19.77 25.5-44.17L599.84 371.81c-14.08-24.4-47.77-39.11-75.23-32.86l-74.14 16.86c-27.47 6.19-39.83 31.88-27.61 57.26z" fill="#c8532c"></path><path d="M407.7 284l45.46-77.54c14.24-24.3 14.38-63.77.29-88.16l-57.71-100c-14.08-24.39-36.92-24.39-51 0l-35.49 61.47c-14.08 24.39-15.6 64.74-3.39 90.13L359.79 282c12.21 25.38 33.66 26.25 47.91 2z" fill="#d6690e"></path></g></g></svg></svg> <!----></g></g> <g transform="translate(67,0)"><g data-gra="path-name" fill-rule="" class="tp-name iconsvg-namesvg" transform="translate(0,0)"><g transform="scale(1)"><g><path d="M19.98-28.04L19.98-30.24 2.7-30.24 2.7-33.16 19.98-33.16 19.98-36.23 24.93-36.23 24.93-33.16 42.21-33.16 42.21-30.91Q42.21-30.64 42.01-30.44 41.8-30.24 41.53-30.24L41.53-30.24 24.93-30.24 24.93-28.04 39.96-28.04 39.96-25.79Q39.96-25.11 39.51-25.11L39.51-25.11 4.95-25.11 4.95-28.04 19.98-28.04ZM39.78-23.58L39.78-21.06Q39.78-16.34 35.05-16.34L35.05-16.34 5.08-16.34 5.08-23.58 39.78-23.58ZM33.48-19.26Q34.96-19.26 35.05-20.65L35.05-20.65 9.81-20.65 9.81-19.26 33.48-19.26ZM32.98-13.09L42.93-13.09 42.93-10.84Q42.93-10.57 42.73-10.37 42.52-10.17 42.25-10.17L42.25-10.17 2.07-10.17 2.07-13.09 12.06-13.09Q11.16-14.4 10.84-15.93L10.84-15.93 16.25-15.93Q16.29-14.89 16.4-14.29 16.52-13.68 16.88-13.09L16.88-13.09 28.17-13.09Q28.53-13.68 28.64-14.29 28.75-14.89 28.8-15.93L28.8-15.93 34.2-15.93Q33.88-14.4 32.98-13.09L32.98-13.09ZM22.23-7.88L22-0.67Q21.91 1.71 20.77 2.88 19.62 4.05 17.28 4.05L17.28 4.05 11.61 4.05 11.61 1.13 15.71 1.13Q16.47 1.13 16.85 0.77 17.23 0.4 17.28-0.45L17.28-0.45 17.41-4.95 13.72-4.95Q13.46-2.56 11.86-0.54 10.26 1.48 7.69 2.86 5.13 4.23 2.07 4.68L2.07 4.68 2.07 1.75Q4.54 1.03 6.3-0.63 8.05-2.29 8.59-4.95L8.59-4.95 3.24-4.95 3.24-7.88 8.82-7.88 8.82-9.72 13.77-9.72 13.77-7.88 22.23-7.88ZM40.59-8.28L40.59-0.77Q40.59 3.96 35.87 3.96L35.87 3.96 24.39 3.96 24.39-8.28 40.59-8.28ZM34.29 1.03Q35.87 1.03 35.87-0.54L35.87-0.54 35.87-5.35 29.11-5.35 29.11 1.03 34.29 1.03ZM63-36.23Q64.44-32.45 66.56-29.9 68.67-27.36 72.27-24.48L72.27-24.48 72.27-21.55Q68.76-22.72 65.5-25.09 62.23-27.45 60.12-30.55L60.12-30.55Q56.43-24.12 47.07-19.35L47.07-19.35 47.07-22.27Q53.82-27.54 56.84-36.23L56.84-36.23 63-36.23ZM81.31-36.23L86.27-36.23 86.27-1.21Q86.27 3.51 81.54 3.51L81.54 3.51 73.8 3.51 73.8 0.58 79.74 0.58Q81.31 0.58 81.31-0.99L81.31-0.99 81.31-36.23ZM78.57-7.2Q78.57-6.93 78.37-6.73 78.16-6.52 77.89-6.52L77.89-6.52 73.62-6.52 73.62-31.95 78.57-31.95 78.57-7.2ZM67.36-7.02Q67.41-7.29 67.59-7.49 67.77-7.69 68.04-7.69L68.04-7.69 71.41-7.69 70.97-0.22Q70.88 1.62 69.93 2.48 68.98 3.33 66.96 3.24L66.96 3.24 54.67 3.24Q50.49 3.24 50.49-0.94L50.49-0.94 50.49-21.24 67.45-21.24 67.45-12.06Q67.45-7.33 62.73-7.33L62.73-7.33 57.28-7.33 57.28-10.26 60.93-10.26Q62.5-10.26 62.5-11.83L62.5-11.83 62.5-18.31 55.44-18.31 55.44-1.13Q55.44 0.67 57.24 0.67L57.24 0.67 65.34 0.67Q66.78 0.67 66.91-0.9L66.91-0.9 67.36-7.02ZM130.95-34.52L130.95-0.72Q130.95 4 126.22 4L126.22 4 119.38 4 119.38 1.08 124.42 1.08Q126 1.08 126-0.49L126-0.49 126-31.59 99.27-31.59 99.27 4Q99.27 4.27 99.07 4.48 98.86 4.68 98.59 4.68L98.59 4.68 94.32 4.68 94.32-34.52 130.95-34.52ZM112.72-6.34Q110.47-8.01 108.41-10.3L108.41-10.3Q105.16-3.65 100.08-0.18L100.08-0.18 100.08-3.55Q103.59-7.38 105.61-13.99L105.61-13.99Q101.75-19.98 99.72-27.81L99.72-27.81 104.67-27.81Q105.34-23.98 107.06-19.53L107.06-19.53Q107.95-23.94 108.36-28.62L108.36-28.62 113.31-28.62Q113-25.2 112.16-21.31 111.33-17.41 109.89-13.63L109.89-13.63Q111.15-11.52 112.72-9.72L112.72-9.72 112.72-6.34ZM125.19-1.62Q121.63-4.09 118.89-9.31L118.89-9.31Q115.16-2.92 110.07 0.94L110.07 0.94 110.07-2.43Q113.63-5.85 116.78-14.04L116.78-14.04Q115.47-17.5 114.61-21.13 113.76-24.75 113.44-27.54L113.44-27.54 117.94-27.54Q117.94-24.7 118.84-20.56L118.84-20.56Q120.06-25.15 120.33-28.21L120.33-28.21 125.73-28.21Q125.14-24.79 123.95-20.9 122.76-17.01 120.96-13.23L120.96-13.23Q122.94-7.79 125.19-5L125.19-5 125.19-1.62ZM139.81-12.11Q142.69-14.67 145.13-20.02L145.13-20.02 137.07-20.02 137.07-22.95 138.47-22.95Q139.95-24.57 140.85-26.53 141.75-28.48 142.13-30.22 142.51-31.95 142.97-34.56L142.97-34.56 143.24-36.23 148.19-36.23Q147.28-31.45 145.96-28.3 144.63-25.15 142.83-22.95L142.83-22.95 146.34-22.95Q147.74-26.73 148.37-29.97L148.37-29.97 153.31-29.97Q152.01-24.57 149.29-19.6 146.56-14.63 143.55-12.11L143.55-12.11 144.68-12.11Q146.56-12.11 150.71-13.09L150.71-13.09 150.71-10.57Q150.71-10.35 150.57-10.17 150.44-9.99 150.25-9.95L150.25-9.95Q149.31-9.63 147.96-9.4 146.61-9.18 145.8-9.18L145.8-9.18 137.66-9.18 137.66-12.11 139.81-12.11ZM168.75-19.93Q172.75-17.01 177.93-15.3L177.93-15.3 177.93-12.38Q170.55-14.26 165.51-17.5L165.51-17.5Q159.79-13.86 151.65-12.15L151.65-12.15 151.65-15.07Q158-16.92 162.27-19.93L162.27-19.93Q159.53-22.36 157.72-25.15L157.72-25.15Q155.47-22.81 152.37-21.51L152.37-21.51 152.37-24.43Q156.19-27.68 157.95-36.23L157.95-36.23 163.35-36.23Q162.76-33.84 162.27-32.58L162.27-32.58 175.77-32.58 175.77-29.65Q174.47-26.91 172.96-24.59 171.45-22.27 168.75-19.93L168.75-19.93ZM159.7-27.54L161.91-27.54Q163.31-25.06 165.51-22.77L165.51-22.77Q168.44-25.92 169.6-29.65L169.6-29.65 161.1-29.65 161.1-29.92Q160.69-29.07 159.7-27.54L159.7-27.54ZM174.64-12.01L174.64-1.26Q174.64 3.46 169.92 3.46L169.92 3.46 154.26 3.46 154.26-12.01 174.64-12.01ZM168.12 0.54Q169.69 0.54 169.69-1.03L169.69-1.03 169.69-9.09 159.21-9.09 159.21 0.54 168.12 0.54ZM137.07-1.8L148.46-3.1Q149.31-3.24 150.97-3.65L150.97-3.65 152.69-4.09 152.69-1.57Q152.69-1.35 152.55-1.17 152.41-0.99 152.24-0.94L152.24-0.94Q152.01-0.85 151.25-0.61 150.48-0.36 149.58-0.18L149.58-0.18 137.07 2.02 137.07-1.8Z" transform="translate(-2.069999933242798, 36.22999954223633)"></path></g> <!----> <!----> <!----> <!----> <!----> <!----> <!----></g></g> <g data-gra="path-slogan" fill-rule="" class="tp-slogan iconsvg-slogansvg" fill="#c8532c" transform="translate(21.274993896484375,46.90999984741211)"><!----> <!----> <g transform="scale(1, 1)"><g transform="scale(1)"><path d="M0.19-1.92L0.19-2.77L1.27-2.77L1.27-2.16Q1.27-0.75 2.58-0.75L2.58-0.75Q3.94-0.75 3.94-2.25L3.94-2.25L3.94-8.58L5.11-8.58L5.11-2.30Q5.06 0.09 2.63 0.14L2.63 0.14Q0.33 0.09 0.19-1.92L0.19-1.92ZM7.08-8.58L8.25-8.58L8.25 0L7.08 0L7.08-8.58ZM15.89 0L15.05-2.48L11.58-2.48L10.69 0L9.52 0L12.75-8.58L14.06-8.58L17.16 0L15.89 0ZM13.31-7.31L11.95-3.52L14.63-3.52L13.36-7.31L13.31-7.31ZM25.36-6.05L25.36-6.05L24.23-6.05Q23.81-7.78 21.84-7.83L21.84-7.83Q19.13-7.69 19.03-4.36L19.03-4.36Q19.03-0.80 21.89-0.80L21.89-0.80Q23.86-0.84 24.33-3.19L24.33-3.19L25.45-3.19Q24.94 0.05 21.66 0.14L21.66 0.14Q17.91 0 17.81-4.31L17.81-4.31Q18-8.63 21.84-8.81L21.84-8.81Q24.89-8.72 25.36-6.05ZM27.98-5.06L32.48-5.06L32.48-8.58L33.66-8.58L33.66 0L32.48 0L32.48-3.98L27.98-3.98L27.98 0L26.81 0L26.81-8.58L27.98-8.58L27.98-5.06ZM41.11-3.19L41.11-8.58L42.28-8.58L42.28-3.05Q42.14 0.05 38.77 0.14L38.77 0.14Q35.63 0.05 35.48-2.86L35.48-2.86L35.48-8.58L36.66-8.58L36.66-3.19Q36.70-0.84 38.81-0.80L38.81-0.80Q41.11-0.84 41.11-3.19L41.11-3.19ZM49.73 0L48.89-2.48L45.42-2.48L44.53 0L43.36 0L46.59-8.58L47.91-8.58L51 0L49.73 0ZM47.16-7.31L45.80-3.52L48.47-3.52L47.20-7.31L47.16-7.31ZM53.44-8.58L57.75-1.64L57.75-8.58L58.88-8.58L58.88 0L57.56 0L53.20-6.94L53.16-6.94L53.16 0L52.03 0L52.03-8.58L53.44-8.58ZM67.08-3.61L64.45-3.61L64.45-4.59L68.20-4.59L68.20 0L67.45 0L67.17-1.08Q66.19 0.09 64.36 0.14L64.36 0.14Q62.63 0.14 61.69-0.75L61.69-0.75Q60.28-2.06 60.33-4.36L60.33-4.36Q60.66-8.63 64.41-8.81L64.41-8.81Q67.59-8.63 68.06-6L68.06-6L66.94-6Q66.47-7.78 64.36-7.83L64.36-7.83Q61.69-7.64 61.55-4.31L61.55-4.31Q61.55-0.75 64.41-0.75L64.41-0.75Q65.44-0.75 66.19-1.31L66.19-1.31Q67.13-2.06 67.08-3.61L67.08-3.61ZM74.72-8.58L79.03-1.64L79.03-8.58L80.16-8.58L80.16 0L78.84 0L74.48-6.94L74.44-6.94L74.44 0L73.31 0L73.31-8.58L74.72-8.58ZM83.25-1.03L88.41-1.03L88.41 0L82.08 0L82.08-8.58L88.31-8.58L88.31-7.59L83.25-7.59L83.25-4.92L87.94-4.92L87.94-3.89L83.25-3.89L83.25-1.03ZM92.11-7.59L89.20-7.59L89.20-8.58L96.14-8.58L96.14-7.59L93.23-7.59L93.23 0L92.11 0L92.11-7.59ZM101.95-7.13L101.91-7.13L99.94 0L98.72 0L96.47-8.58L97.69-8.58L99.33-1.59L99.38-1.59L101.30-8.58L102.56-8.58L104.48-1.59L104.53-1.59L106.13-8.58L107.39-8.58L105.14 0L103.92 0L101.95-7.13ZM115.27-4.27L115.27-4.27Q115.08-7.64 112.27-7.83L112.27-7.83Q109.41-7.69 109.27-4.27L109.27-4.27Q109.41-0.94 112.27-0.80L112.27-0.80Q115.08-0.98 115.27-4.27ZM116.44-4.27L116.44-4.27Q116.16 0 112.27 0.14L112.27 0.14Q108.33 0 108.05-4.27L108.05-4.27Q108.28-8.72 112.27-8.81L112.27-8.81Q116.16-8.67 116.44-4.27ZM121.92-3.70L119.11-3.70L119.11 0L117.94 0L117.94-8.58L121.92-8.58Q124.78-8.58 124.78-6.28L124.78-6.28Q124.78-4.88 123.56-4.22L123.56-4.22Q124.59-3.94 124.59-2.58L124.59-2.58L124.69-1.03Q124.64-0.38 125.11-0.19L125.11-0.19L125.11 0L123.66 0Q123.52-0.61 123.47-2.16L123.47-2.16Q123.52-3.70 121.92-3.70L121.92-3.70ZM122.02-7.64L119.11-7.64L119.11-4.69L121.83-4.69Q123.56-4.69 123.56-6.19L123.56-6.19Q123.56-7.64 122.02-7.64L122.02-7.64ZM128.95-4.31L127.59-3.05L127.59 0L126.42 0L126.42-8.58L127.59-8.58L127.59-4.41L131.77-8.58L133.41-8.58L129.80-5.11L133.50 0L131.95 0L128.95-4.31Z" transform="translate(-0.1875, 8.8125)"></path></g></g></g></g></g><defs v-gra="od"></defs></svg>